<svg xmlns="http://www.w3.org/2000/svg" width="245" height="21" fill="none" viewBox="0 0 245 21"><path fill="#fff" d="M.69 20.5V.62h4.592v15.848h9.632V20.5H.69Zm23.829.168c-1.475 0-2.819-.29-4.032-.868a10.05 10.05 0 0 1-3.108-2.268 10.79 10.79 0 0 1-2.016-3.248 10.366 10.366 0 0 1-.7-3.752c0-1.307.242-2.567.728-3.78a10.236 10.236 0 0 1 2.072-3.192 9.969 9.969 0 0 1 3.164-2.212c1.213-.56 2.539-.84 3.976-.84 1.474 0 2.819.29 4.032.868a9.835 9.835 0 0 1 3.108 2.296A10.356 10.356 0 0 1 33.73 6.92c.466 1.213.7 2.445.7 3.696a9.76 9.76 0 0 1-.756 3.78 10.17 10.17 0 0 1-2.044 3.22 10.242 10.242 0 0 1-3.136 2.212c-1.213.56-2.539.84-3.976.84Zm-5.18-10.08c0 .765.112 1.512.336 2.24.224.71.55 1.344.98 1.904a5.04 5.04 0 0 0 1.652 1.344c.653.336 1.4.504 2.24.504.877 0 1.642-.177 2.296-.532a5.054 5.054 0 0 0 1.624-1.372c.43-.579.747-1.223.952-1.932a7.482 7.482 0 0 0 .336-2.212c0-.765-.112-1.503-.336-2.212a5.474 5.474 0 0 0-1.008-1.904A4.74 4.74 0 0 0 26.759 5.1c-.635-.336-1.372-.504-2.212-.504-.878 0-1.643.177-2.296.532a5.134 5.134 0 0 0-1.624 1.344 6.084 6.084 0 0 0-.98 1.932 7.816 7.816 0 0 0-.308 2.184ZM37.084 20.5V.62h8.96c.934 0 1.792.196 2.576.588a6.825 6.825 0 0 1 2.072 1.54 6.983 6.983 0 0 1 1.344 2.156c.336.803.504 1.615.504 2.436a7.14 7.14 0 0 1-.224 1.792 6.972 6.972 0 0 1-.644 1.596c-.28.504-.625.961-1.036 1.372-.392.392-.84.728-1.344 1.008L53.66 20.5h-5.18l-3.808-6.412h-2.996V20.5h-4.592Zm4.592-10.416h4.2c.542 0 1.008-.252 1.4-.756.392-.523.588-1.185.588-1.988 0-.821-.224-1.475-.672-1.96-.448-.485-.933-.728-1.456-.728h-4.06v5.432Zm28.138 6.384V20.5H55.842V.62h13.72v4.032h-9.128v3.864h7.84v3.724h-7.84v4.228h9.38Zm18.47 4.032V8.6l-4.312 8.652h-2.464L77.196 8.6v11.9h-4.592V.62h4.984l5.152 10.388L87.92.62h4.956V20.5h-4.592Zm8.41 0V.62h4.592V20.5h-4.592Zm8.394 0V.62h8.484c.952 0 1.82.196 2.604.588a6.483 6.483 0 0 1 2.044 1.54 6.972 6.972 0 0 1 1.344 2.156c.336.803.504 1.615.504 2.436a6.8 6.8 0 0 1-.476 2.52 6.835 6.835 0 0 1-1.288 2.156 5.92 5.92 0 0 1-1.988 1.512c-.784.373-1.652.56-2.604.56h-4.032V20.5h-4.592Zm4.592-10.416h3.752c.541 0 1.008-.233 1.4-.7.392-.467.588-1.148.588-2.044 0-.467-.065-.868-.196-1.204a2.305 2.305 0 0 0-.476-.84 1.737 1.737 0 0 0-.7-.476 1.976 1.976 0 0 0-.784-.168h-3.584v5.432Zm24.781-3.64c-.056-.075-.252-.215-.588-.42a12.166 12.166 0 0 0-2.912-1.232 6.587 6.587 0 0 0-1.792-.252c-1.642 0-2.464.55-2.464 1.652 0 .336.084.616.252.84.187.224.448.43.784.616a8.7 8.7 0 0 0 1.316.476c.523.15 1.13.317 1.82.504.952.261 1.811.55 2.576.868.766.299 1.41.681 1.932 1.148.542.448.952.999 1.232 1.652.299.653.448 1.437.448 2.352 0 1.12-.214 2.072-.644 2.856a5.334 5.334 0 0 1-1.652 1.876 7.422 7.422 0 0 1-2.38 1.036 12.39 12.39 0 0 1-2.772.308 15.47 15.47 0 0 1-2.24-.168 17.684 17.684 0 0 1-2.24-.476 20.699 20.699 0 0 1-2.128-.784 12.111 12.111 0 0 1-1.876-1.036l2.016-4.004c.075.093.318.27.728.532.411.261.915.523 1.512.784.616.261 1.298.495 2.044.7a8.521 8.521 0 0 0 2.268.308c1.624 0 2.436-.495 2.436-1.484 0-.373-.121-.681-.364-.924-.242-.243-.578-.457-1.008-.644a9.619 9.619 0 0 0-1.54-.56c-.578-.168-1.213-.355-1.904-.56a17.89 17.89 0 0 1-2.38-.896c-.672-.336-1.232-.719-1.68-1.148a4.383 4.383 0 0 1-.98-1.484c-.205-.56-.308-1.213-.308-1.96 0-1.045.196-1.97.588-2.772a5.844 5.844 0 0 1 1.596-2.016 6.838 6.838 0 0 1 2.324-1.26 9.428 9.428 0 0 1 2.828-.42c.691 0 1.372.065 2.044.196.672.13 1.316.299 1.932.504.616.205 1.186.439 1.708.7.542.261 1.036.523 1.484.784l-2.016 3.808ZM148.3 16.58c.784 0 1.447-.159 1.988-.476.541-.336.98-.775 1.316-1.316a5.364 5.364 0 0 0 .7-1.848c.149-.71.224-1.428.224-2.156V.62h4.592v10.164c0 1.381-.177 2.67-.532 3.864-.336 1.195-.868 2.24-1.596 3.136-.709.896-1.624 1.605-2.744 2.128-1.101.504-2.417.756-3.948.756-1.587 0-2.94-.27-4.06-.812-1.12-.541-2.035-1.26-2.744-2.156-.691-.915-1.204-1.97-1.54-3.164a14.57 14.57 0 0 1-.476-3.752V.62h4.592v10.164c0 .765.075 1.493.224 2.184.149.69.392 1.307.728 1.848.336.541.765.97 1.288 1.288.541.317 1.204.476 1.988.476Zm28.058 3.92V8.6l-4.312 8.652h-2.464L165.27 8.6v11.9h-4.592V.62h4.984l5.152 10.388L175.994.62h4.956V20.5h-4.592Zm8.018 0v-4.564h3.668V20.5h-3.668Z"/><path fill="#42A9ED" d="M196.059 9.132V20.5h-4.592V.62h3.584l9.268 11.676V.62h4.592V20.5h-3.696l-9.156-11.368Zm30.626 7.336V20.5h-13.972V.62h13.72v4.032h-9.128v3.864h7.84v3.724h-7.84v4.228h9.38Zm17.938-11.816h-6.048V20.5h-4.592V4.652h-6.076V.62h16.716v4.032Z"/></svg>