<svg xmlns="http://www.w3.org/2000/svg" xmlns:xlink="http://www.w3.org/1999/xlink"><symbol fill="currentColor" viewBox="0 0 39 42" id="file"><path d="M15.493 23.122v-1.285c0-.362.281-.643.643-.643H30.28c.361 0 .643.281.643.643v1.285a.635.635 0 0 1-.643.643H16.136a.635.635 0 0 1-.643-.643ZM16.136 26.337H30.28c.361 0 .643.281.643.643v1.285a.635.635 0 0 1-.643.643H16.136a.635.635 0 0 1-.643-.643V26.98c0-.362.281-.643.643-.643ZM16.136 31.48H30.28c.361 0 .643.28.643.642v1.286a.635.635 0 0 1-.643.643H16.136a.635.635 0 0 1-.643-.643v-1.286c0-.361.281-.642.643-.642Z"/><path fill-rule="evenodd" clip-rule="evenodd" d="M7.779 15.065a7.415 7.415 0 1 1 7.173-9.3h12.755c1.065 0 2.552.623 3.295 1.366L37.27 13.4c.743.744 1.366 2.23 1.366 3.295v23.143a1.93 1.93 0 0 1-1.928 1.928h-27a1.93 1.93 0 0 1-1.93-1.928V15.065Zm2.571-.458a7.421 7.421 0 0 0 4.813-6.27h10.616v8.357a1.93 1.93 0 0 0 1.928 1.928h8.358v20.572H10.35V14.607Zm18.824-5.668c-.14-.14-.482-.321-.824-.442v7.554h7.554c-.12-.341-.301-.683-.442-.824L29.174 8.94ZM8.779 8.65h4v-2h-4v-4h-2v4h-4v2h4v4h2v-4Z"/></symbol><symbol fill="currentColor" viewBox="0 0 18 21" id="file2"><path d="M16.813 4.609 13.33 1.127c-.413-.413-1.239-.76-1.83-.76h-10C.908.368.429.848.429 1.44v17.858c0 .591.48 1.07 1.071 1.07h15c.591 0 1.071-.479 1.071-1.07V6.439c0-.591-.346-1.417-.759-1.83Zm-4.956-2.723c.19.067.38.167.458.245l3.493 3.494c.078.078.179.267.246.457h-4.197V1.886Zm4.286 17.053H1.857V1.796h8.572V6.44c0 .592.48 1.072 1.071 1.072h4.643v11.428ZM4.714 9.296v.715c0 .2.157.357.357.357h7.858c.2 0 .357-.156.357-.357v-.715c0-.2-.156-.357-.357-.357H5.07c-.2 0-.357.157-.357.357Zm8.215 2.5H5.07c-.2 0-.357.157-.357.358v.714c0 .2.157.357.357.357h7.858c.2 0 .357-.156.357-.357v-.714c0-.201-.156-.357-.357-.357Zm0 2.858H5.07c-.2 0-.357.156-.357.357v.714c0 .201.157.357.357.357h7.858c.2 0 .357-.156.357-.357v-.714c0-.201-.156-.357-.357-.357Z"/></symbol><symbol fill="currentColor" viewBox="0 0 40 40" id="icon-burger"><path d="M37 37H16v-2h21v2Zm-4-8H16v-2h17v2Zm7-8H16v-2h24v2Z"/></symbol><symbol fill="currentColor" viewBox="0 0 56 56" id="icon-burger-close"><g><path d="m18.16 19.929 18.748 18.748 1.768-1.767-18.749-18.75-1.768 1.769Z"/><path d="m38.517 19.768-18.75 18.749L18 36.749 36.749 18l1.768 1.768Z"/></g></symbol><symbol fill="currentColor" viewBox="0 0 37 30" id="message"><path d="M33.929 25.857a.661.661 0 0 1-.643.643H3.714a.661.661 0 0 1-.643-.643V10.43c.422.482.884.924 1.387 1.325 2.872 2.21 5.765 4.46 8.558 6.79 1.506 1.266 3.375 2.813 5.464 2.813h.04c2.09 0 3.958-1.547 5.464-2.812 2.793-2.33 5.686-4.58 8.558-6.79.503-.402.965-.844 1.387-1.326v15.428Zm0-21.114c0 1.708-1.648 3.938-2.954 4.962-2.692 2.11-5.384 4.24-8.055 6.369-1.065.863-2.994 2.712-4.4 2.712h-.04c-1.406 0-3.335-1.849-4.4-2.712-2.671-2.13-5.363-4.26-8.055-6.369C4.217 8.28 3.07 6.29 3.07 4c0-.342.302-.643.643-.643h29.572c.763 0 .643.884.643 1.386ZM36.5 4A3.224 3.224 0 0 0 33.286.786H3.714A3.224 3.224 0 0 0 .5 4v21.857a3.224 3.224 0 0 0 3.214 3.214h29.572a3.224 3.224 0 0 0 3.214-3.214V4Z"/></symbol><symbol fill="currentColor" viewBox="0 0 39 27" id="money"><path d="M15.429 18.786v-1.929H18v-5.786h-.04c-.322.503-.623.724-1.105 1.146l-1.547-1.608 2.973-2.752h2.29v9h2.572v1.929h-7.714Zm10.285-5.143c0-3.656-2.21-8.357-6.428-8.357-4.219 0-6.429 4.7-6.429 8.357 0 3.656 2.21 8.357 6.429 8.357 4.218 0 6.428-4.7 6.428-8.357ZM36 18.786a5.153 5.153 0 0 0-5.143 5.143H7.714a5.153 5.153 0 0 0-5.143-5.143V8.5a5.153 5.153 0 0 0 5.143-5.143h23.143A5.153 5.153 0 0 0 36 8.5v10.286ZM38.571 2.07c0-.703-.582-1.285-1.285-1.285h-36C.583.786 0 1.368 0 2.07v23.143c0 .703.583 1.286 1.286 1.286h36c.703 0 1.285-.583 1.285-1.286V2.071Z"/></symbol><symbol fill="currentColor" viewBox="0 0 32 31" id="percent"><path d="M26.286 23.214a2.59 2.59 0 0 1-2.572 2.572 2.59 2.59 0 0 1-2.571-2.572 2.59 2.59 0 0 1 2.571-2.571 2.59 2.59 0 0 1 2.572 2.571ZM10.857 7.786a2.59 2.59 0 0 1-2.571 2.571 2.59 2.59 0 0 1-2.572-2.571 2.59 2.59 0 0 1 2.572-2.572 2.59 2.59 0 0 1 2.571 2.572ZM31.43 23.214a7.716 7.716 0 0 0-7.715-7.714A7.716 7.716 0 0 0 16 23.214a7.716 7.716 0 0 0 7.714 7.715 7.716 7.716 0 0 0 7.715-7.715ZM29.5 1.357c0-.703-.583-1.286-1.286-1.286H25c-.402 0-.784.201-1.025.523L2.761 28.879c-.16.221-.261.483-.261.764 0 .703.583 1.286 1.286 1.286H7c.402 0 .783-.201 1.025-.523L29.239 2.121c.16-.221.261-.483.261-.764ZM16 7.786A7.716 7.716 0 0 0 8.286.07 7.716 7.716 0 0 0 .57 7.786 7.716 7.716 0 0 0 8.286 15.5 7.716 7.716 0 0 0 16 7.786Z"/></symbol><symbol fill="currentColor" viewBox="0 0 21 20" id="qiwi"><path d="M16.912 13.456c.06.388-.067.552-.195.552s-.314-.158-.521-.47c-.207-.313-.278-.661-.178-.84a.287.287 0 0 1 .17-.126.298.298 0 0 1 .213.022c.341.124.475.63.51.862Zm-1.888.85c.41.335.535.733.318 1.013a.687.687 0 0 1-.55.238.998.998 0 0 1-.626-.218c-.37-.314-.48-.825-.237-1.114a.534.534 0 0 1 .434-.176c.245.008.479.099.661.257Zm-.684 3.23c1.762 0 3.674.585 5.791 2.4.211.18.493-.045.309-.27-2.08-2.54-4.008-3.025-5.922-3.433-2.346-.502-3.554-1.78-4.4-3.182-.166-.279-.242-.23-.257.13a7.655 7.655 0 0 0 .124 1.59H9.7a6.226 6.226 0 0 1-3.377-.992 5.927 5.927 0 0 1-2.239-2.639 5.701 5.701 0 0 1-.345-3.397A5.823 5.823 0 0 1 5.4 4.733a6.145 6.145 0 0 1 3.112-1.61 6.27 6.27 0 0 1 3.512.335 6.04 6.04 0 0 1 2.728 2.166 5.744 5.744 0 0 1 .986 3.95 9.38 9.38 0 0 0-1.93-.035c-.232.02-.198.13-.025.154 2.004.35 3.391 1.55 3.706 3.74a.053.053 0 0 0 .014.03.055.055 0 0 0 .062.014.055.055 0 0 0 .026-.021 8.658 8.658 0 0 0 1.24-5.608 8.78 8.78 0 0 0-2.554-5.176 9.31 9.31 0 0 0-5.29-2.59A9.46 9.46 0 0 0 5.165 1.15a9.001 9.001 0 0 0-3.94 4.286 8.625 8.625 0 0 0-.417 5.72 8.884 8.884 0 0 0 3.28 4.779 9.399 9.399 0 0 0 5.612 1.849c1.343.004 2.68-.25 4.641-.25v.002Z"/></symbol><symbol fill="currentColor" viewBox="0 0 34 35" id="search"><path d="M23.429 14.929c0 4.962-4.038 9-9 9s-9-4.038-9-9 4.038-9 9-9 9 4.038 9 9Zm10.285 16.714c0-.683-.281-1.346-.743-1.808l-6.89-6.89a14.11 14.11 0 0 0 2.49-8.016C28.571 7.114 22.243.786 14.43.786 6.614.786.286 7.114.286 14.929c0 7.814 6.328 14.142 14.143 14.142a14.11 14.11 0 0 0 8.015-2.49l6.89 6.87a2.522 2.522 0 0 0 1.809.763 2.59 2.59 0 0 0 2.571-2.571Z"/></symbol><symbol fill="currentColor" viewBox="0 0 12 14" id="vk"><path d="M11.18 9.286c0 .65-.123 1.222-.369 1.714s-.577.9-.993 1.222a4.598 4.598 0 0 1-1.626.826c-.586.164-1.333.246-2.241.246H.713V.207h4.623c.96 0 1.687.038 2.18.114.497.07.963.223 1.397.457.469.252.817.59 1.046 1.011.234.422.351.908.351 1.46 0 .638-.16 1.206-.483 1.704a2.793 2.793 0 0 1-1.318 1.099v.07c.808.17 1.456.519 1.942 1.046.486.522.73 1.228.73 2.118ZM6.97 3.907c0-.21-.055-.427-.167-.65a.961.961 0 0 0-.5-.483 2.042 2.042 0 0 0-.774-.15 36.06 36.06 0 0 0-1.318-.017h-.229v2.768h.413c.563 0 .955-.006 1.178-.017.229-.012.463-.074.703-.185.264-.123.445-.293.545-.51.1-.217.15-.469.15-.756Zm.827 5.318c0-.405-.082-.721-.246-.95-.165-.228-.41-.4-.739-.518-.199-.076-.474-.117-.826-.123a43.437 43.437 0 0 0-1.397-.018h-.607v3.279h.176c.855 0 1.447-.006 1.775-.018.328-.012.662-.09 1.002-.237.3-.13.516-.317.65-.563.141-.252.212-.536.212-.852Z"/></symbol><symbol fill="currentColor" viewBox="0 0 19 18" id="web"><path d="M9.34 0c1.411 0 2.753.323 3.957.901.189.085.379.187.567.29l-.826.73L11.801.647l-2.133 1.87-1.256-1.343L4.49 4.66l2.511 2.737-.98.85 2.477 2.738-.98.85 3.543 3.893 2.098-1.904 1.824 2.04c-.362.273-.758.546-1.187.783a9.07 9.07 0 0 1-4.438 1.156c-4.971 0-9.012-3.995-9.012-8.909C.328 4.013 4.37 0 9.34 0ZM7.69 8.349l2.15-1.905 1.926 2.126-2.15 1.904-1.927-2.125Zm1.53 3.672 2.133-1.92 1.944 2.124-2.15 1.905L9.22 12.02ZM6.16 4.727l2.149-1.904 1.926 2.125-2.15 1.904L6.16 4.727Zm3.937-1.02 1.6-1.429 1.445 1.582-1.6 1.445-1.445-1.598Zm2.856 6.546 1.6-1.428 1.444 1.597-1.6 1.43-1.444-1.6Zm1.41 3.214 1.6-1.429 1.444 1.582-1.6 1.444-1.444-1.597Zm.654-7.346 1.066-.952.963 1.054-1.066.952-.963-1.054ZM13.64 2.975l1.066-.968.964 1.07-1.067.953-.963-1.055Zm2.734 6.292 1.067-.952.98 1.054-1.083.952-.963-1.054Zm-4.798-2.364 1.6-1.428 1.444 1.581-1.599 1.429-1.445-1.582Z"/></symbol><symbol fill="currentColor" viewBox="0 0 15 18" id="yandex"><path fill-rule="evenodd" clip-rule="evenodd" d="M.78 8.93c0-.983.083-1.608 2.138-3.13C4.62 4.542 10.073.238 10.073.238v7.185h4.147v10.34H2.075A1.294 1.294 0 0 1 .78 16.479V8.93Z"/><path fill-rule="evenodd" clip-rule="evenodd" d="M10.073 7.422v4.163l-7.62 5.148 9.634-3.108V7.422h-2.014Z" fill-opacity=".2"/><path fill-rule="evenodd" clip-rule="evenodd" d="M6.59 7.207c.446-.527 1.097-.713 1.454-.415.358.297.286.965-.16 1.492-.445.526-1.096.712-1.453.415-.358-.298-.286-.966.16-1.492Z"/></symbol></svg>