<svg width="39" height="42" viewBox="0 0 39 42" fill="none" xmlns="http://www.w3.org/2000/svg">
<path d="M15.4932 23.1224V21.8367C15.4932 21.4751 15.7745 21.1939 16.1361 21.1939H30.2789C30.6405 21.1939 30.9218 21.4751 30.9218 21.8367V23.1224C30.9218 23.484 30.6405 23.7653 30.2789 23.7653H16.1361C15.7745 23.7653 15.4932 23.484 15.4932 23.1224Z" fill="white"/>
<path d="M16.1361 26.3367H30.2789C30.6405 26.3367 30.9218 26.618 30.9218 26.9796V28.2653C30.9218 28.6269 30.6405 28.9081 30.2789 28.9081H16.1361C15.7745 28.9081 15.4932 28.6269 15.4932 28.2653V26.9796C15.4932 26.618 15.7745 26.3367 16.1361 26.3367Z" fill="white"/>
<path d="M16.1361 31.4796H30.2789C30.6405 31.4796 30.9218 31.7608 30.9218 32.1224V33.4081C30.9218 33.7698 30.6405 34.051 30.2789 34.051H16.1361C15.7745 34.051 15.4932 33.7698 15.4932 33.4081V32.1224C15.4932 31.7608 15.7745 31.4796 16.1361 31.4796Z" fill="white"/>
<path fill-rule="evenodd" clip-rule="evenodd" d="M7.77892 15.0648C3.68373 15.0648 0.363922 11.745 0.363922 7.6498C0.363922 3.55461 3.68373 0.234802 7.77892 0.234802C11.2229 0.234802 14.1185 2.58277 14.9523 5.76529H27.7075C28.7722 5.76529 30.2588 6.38806 31.0021 7.13136L37.27 13.3992C38.0133 14.1425 38.6361 15.6291 38.6361 16.6939V39.8367C38.6361 40.9015 37.7722 41.7653 36.7075 41.7653H9.70749C8.64276 41.7653 7.77892 40.9015 7.77892 39.8367L7.77892 15.0648ZM10.3504 14.6068C12.9729 13.6371 14.897 11.227 15.1625 8.33672H25.7789V16.6939C25.7789 17.7586 26.6428 18.6224 27.7075 18.6224H36.0646V39.1939H10.3504V14.6068ZM29.174 8.9394C29.0334 8.79877 28.6919 8.61797 28.3504 8.49743V16.051H35.9039C35.7834 15.7095 35.6026 15.368 35.462 15.2273L29.174 8.9394ZM8.77892 8.64984H12.7789V6.64984H8.77892V2.64984H6.77892V6.64984H2.77892V8.64984H6.77892V12.6498H8.77892V8.64984Z" fill="white"/>
</svg>
