<svg width="37" height="30" viewBox="0 0 37 30" fill="none" xmlns="http://www.w3.org/2000/svg">
<path d="M33.9286 25.8571C33.9286 26.1987 33.6272 26.5 33.2857 26.5H3.71429C3.37277 26.5 3.07143 26.1987 3.07143 25.8571V10.4286C3.4933 10.9107 3.95536 11.3527 4.45759 11.7545C7.33036 13.9643 10.2232 16.2143 13.0156 18.5446C14.5223 19.8103 16.3906 21.3571 18.4799 21.3571H18.5H18.5201C20.6094 21.3571 22.4777 19.8103 23.9844 18.5446C26.7768 16.2143 29.6696 13.9643 32.5424 11.7545C33.0446 11.3527 33.5067 10.9107 33.9286 10.4286V25.8571ZM33.9286 4.74329C33.9286 6.45088 32.2813 8.68079 30.9754 9.70535C28.2835 11.8147 25.5915 13.9442 22.9196 16.0737C21.8549 16.9375 19.9263 18.7857 18.5201 18.7857H18.5H18.4799C17.0737 18.7857 15.1451 16.9375 14.0804 16.0737C11.4085 13.9442 8.71652 11.8147 6.02455 9.70535C4.21652 8.27901 3.07143 6.29017 3.07143 3.99999C3.07143 3.65847 3.37277 3.35713 3.71429 3.35713H33.2857C34.0491 3.35713 33.9286 4.24106 33.9286 4.74329ZM36.5 3.99999C36.5 2.23213 35.0536 0.785706 33.2857 0.785706H3.71429C1.94643 0.785706 0.5 2.23213 0.5 3.99999V25.8571C0.5 27.625 1.94643 29.0714 3.71429 29.0714H33.2857C35.0536 29.0714 36.5 27.625 36.5 25.8571V3.99999Z" fill="white"/>
</svg>
