<svg width="39" height="27" viewBox="0 0 39 27" fill="none" xmlns="http://www.w3.org/2000/svg">
<path d="M15.4286 18.7857V16.8571H18V11.0714H17.9598C17.6384 11.5737 17.3371 11.7946 16.8549 12.2165L15.308 10.6094L18.2812 7.85713H20.5714V16.8571H23.1429V18.7857H15.4286ZM25.7143 13.6428C25.7143 9.9866 23.5045 5.28571 19.2857 5.28571C15.067 5.28571 12.8571 9.9866 12.8571 13.6428C12.8571 17.2991 15.067 22 19.2857 22C23.5045 22 25.7143 17.2991 25.7143 13.6428ZM36 18.7857C33.1674 18.7857 30.8571 21.096 30.8571 23.9286H7.71429C7.71429 21.096 5.40402 18.7857 2.57143 18.7857V8.49999C5.40402 8.49999 7.71429 6.18972 7.71429 3.35713H30.8571C30.8571 6.18972 33.1674 8.49999 36 8.49999V18.7857ZM38.5714 2.07142C38.5714 1.36829 37.9888 0.785706 37.2857 0.785706H1.28571C0.582589 0.785706 0 1.36829 0 2.07142V25.2143C0 25.9174 0.582589 26.5 1.28571 26.5H37.2857C37.9888 26.5 38.5714 25.9174 38.5714 25.2143V2.07142Z" fill="white"/>
</svg>
