<svg width="32" height="31" viewBox="0 0 32 31" fill="none" xmlns="http://www.w3.org/2000/svg">
<path d="M26.2857 23.2143C26.2857 24.6205 25.1205 25.7857 23.7143 25.7857C22.308 25.7857 21.1429 24.6205 21.1429 23.2143C21.1429 21.808 22.308 20.6428 23.7143 20.6428C25.1205 20.6428 26.2857 21.808 26.2857 23.2143ZM10.8571 7.7857C10.8571 9.19195 9.69196 10.3571 8.28571 10.3571C6.87946 10.3571 5.71428 9.19195 5.71428 7.7857C5.71428 6.37945 6.87946 5.21427 8.28571 5.21427C9.69196 5.21427 10.8571 6.37945 10.8571 7.7857ZM31.4286 23.2143C31.4286 18.9553 27.9732 15.5 23.7143 15.5C19.4554 15.5 16 18.9553 16 23.2143C16 27.4732 19.4554 30.9286 23.7143 30.9286C27.9732 30.9286 31.4286 27.4732 31.4286 23.2143ZM29.5 1.35713C29.5 0.654 28.9174 0.0714111 28.2143 0.0714111H25C24.5982 0.0714111 24.2165 0.272304 23.9754 0.593734L2.76116 28.8794C2.60044 29.1004 2.5 29.3616 2.5 29.6428C2.5 30.346 3.08259 30.9286 3.78571 30.9286H7C7.40178 30.9286 7.78348 30.7277 8.02455 30.4062L29.2388 2.12052C29.3996 1.89954 29.5 1.63838 29.5 1.35713ZM16 7.7857C16 3.52677 12.5446 0.0714111 8.28571 0.0714111C4.02678 0.0714111 0.571426 3.52677 0.571426 7.7857C0.571426 12.0446 4.02678 15.5 8.28571 15.5C12.5446 15.5 16 12.0446 16 7.7857Z" fill="white"/>
</svg>
