<svg width="34" height="35" viewBox="0 0 34 35" fill="none" xmlns="http://www.w3.org/2000/svg">
<path d="M23.4286 14.9286C23.4286 19.8906 19.3906 23.9286 14.4286 23.9286C9.46651 23.9286 5.42856 19.8906 5.42856 14.9286C5.42856 9.96651 9.46651 5.92856 14.4286 5.92856C19.3906 5.92856 23.4286 9.96651 23.4286 14.9286ZM33.7143 31.6429C33.7143 30.9598 33.433 30.2969 32.971 29.8348L26.0803 22.9442C27.7076 20.5937 28.5714 17.7812 28.5714 14.9286C28.5714 7.11383 22.2433 0.785706 14.4286 0.785706C6.61383 0.785706 0.285706 7.11383 0.285706 14.9286C0.285706 22.7433 6.61383 29.0714 14.4286 29.0714C17.2812 29.0714 20.0937 28.2076 22.4442 26.5803L29.3348 33.4509C29.7969 33.933 30.4598 34.2143 31.1429 34.2143C32.5491 34.2143 33.7143 33.0491 33.7143 31.6429Z" fill="white"/>
</svg>
